<?xml version="1.0" standalone="no"?><!DOCTYPE svg PUBLIC "-//W3C//DTD SVG 1.1//EN" "http://www.w3.org/Graphics/SVG/1.1/DTD/svg11.dtd"><svg t="1668509757582" class="icon" viewBox="0 0 1024 1024" version="1.1" xmlns="http://www.w3.org/2000/svg" p-id="12257" xmlns:xlink="http://www.w3.org/1999/xlink" width="200" height="200"><path d="M872.329623 147.671158C776.348369 52.389768 649.773091 0.09998 515.399336 0.09998H511.90002c-138.472955 0.999805-267.647725 54.589338-363.82894 150.970514C51.889865 247.351689-0.599883 375.626635 0.09998 512.199961c1.599688 282.144894 231.254833 511.800039 511.90002 511.800039 282.244874 0 511.90002-229.655145 511.90002-511.90002 0-137.873072-53.889475-267.347784-151.570397-364.428822zM758.951767 701.063074c15.996876 15.996876 15.996876 41.891818 0 57.888693s-41.891818 15.996876-57.888693 0l-188.963094-188.963093-188.963093 188.963093c-15.996876 15.996876-41.891818 15.996876-57.888693 0s-15.996876-41.891818 0-57.888693l188.963093-188.963094-188.963093-188.963093c-15.996876-15.996876-15.996876-41.891818 0-57.888693s41.891818-15.996876 57.888693 0l188.963093 188.963093 188.963094-188.963093c15.996876-15.996876 41.891818-15.996876 57.888693 0s15.996876 41.891818 0 57.888693l-188.963093 188.963093 188.963093 188.963094z" fill="#d81e06" p-id="12258"></path></svg>