<?xml version="1.0" standalone="no"?><!DOCTYPE svg PUBLIC "-//W3C//DTD SVG 1.1//EN" "http://www.w3.org/Graphics/SVG/1.1/DTD/svg11.dtd"><svg t="1668509970790" class="icon" viewBox="0 0 1024 1024" version="1.1" xmlns="http://www.w3.org/2000/svg" p-id="33552" xmlns:xlink="http://www.w3.org/1999/xlink" width="200" height="200"><path d="M512 512m-469.333333 0a469.333333 469.333333 0 1 0 938.666666 0 469.333333 469.333333 0 1 0-938.666666 0Z" fill="#1890FF" p-id="33553"></path><path d="M416 454.4v-25.6H492.8c10.666667 0 21.333333-2.133333 25.6-4.266667s12.8-4.266667 21.333333-6.4l14.933334-4.266666v317.866666c0 12.8 2.133333 21.333333 4.266666 25.6 2.133333 2.133333 6.4 4.266667 8.533334 6.4 2.133333 2.133333 8.533333 2.133333 14.933333 2.133334h23.466667v27.733333h-192v-27.733333h21.333333c10.666667 0 17.066667 0 21.333333-2.133334s8.533333-4.266667 8.533334-8.533333c2.133333-4.266667 2.133333-10.666667 2.133333-23.466667V494.933333c0-8.533333 0-17.066667-2.133333-21.333333s-2.133333-8.533333-4.266667-10.666667-6.4-4.266667-10.666667-6.4c-4.266667-2.133333-10.666667-2.133333-19.2-2.133333h-14.933333z m83.2-226.133333c8.533333 0 14.933333 2.133333 23.466667 6.4 8.533333 4.266667 12.8 10.666667 19.2 17.066666 4.266667 8.533333 6.4 14.933333 6.4 23.466667 0 8.533333-2.133333 17.066667-6.4 23.466667s-10.666667 12.8-17.066667 17.066666c-8.533333 4.266667-14.933333 6.4-23.466667 6.4-8.533333 0-17.066667-2.133333-23.466666-6.4-6.4-4.266667-12.8-10.666667-17.066667-17.066666s-6.4-14.933333-6.4-23.466667c0-8.533333 2.133333-17.066667 6.4-23.466667 4.266667-8.533333 10.666667-12.8 19.2-17.066666 4.266667-4.266667 12.8-6.4 19.2-6.4z" fill="#FFFFFF" p-id="33554"></path></svg>